<svg height="512pt" viewBox="-35 0 511 512" width="512pt" xmlns="http://www.w3.org/2000/svg"><path d="m436.03125 107.03125-104.601562-102.734375c-2.804688-2.753906-6.578126-4.296875-10.511719-4.296875h-264.449219c-30.859375 0-55.96875 25.105469-55.96875 55.96875v400.0625c0 30.859375 25.105469 55.96875 55.96875 55.96875h328.082031c30.859375 0 55.96875-25.105469 55.96875-55.96875v-338.296875c0-4.027344-1.617187-7.882813-4.488281-10.703125zm-100.113281-56.273438 52.921875 51.976563h-48.152344c-2.628906 0-4.769531-2.140625-4.769531-4.769531zm48.632812 431.242188h-328.082031c-14.316406 0-25.96875-11.648438-25.96875-25.96875v-400.0625c0-14.320312 11.648438-25.96875 25.96875-25.96875h249.453125v67.964844c0 19.171875 15.597656 34.769531 34.769531 34.769531h69.828125v323.296875c0 14.320312-11.648437 25.96875-25.96875 25.96875zm0 0"/><path d="m324.644531 238h-211.453125c-8.285156 0-15 6.714844-15 15s6.714844 15 15 15h211.453125c8.285157 0 15-6.714844 15-15s-6.714843-15-15-15zm0 0"/><path d="m113.191406 328h172.414063c8.285156 0 15-6.714844 15-15s-6.714844-15-15-15h-172.414063c-8.285156 0-15 6.714844-15 15s6.714844 15 15 15zm0 0"/><path d="m306.40625 358h-193.214844c-8.285156 0-15 6.714844-15 15s6.714844 15 15 15h193.214844c8.28125 0 15-6.714844 15-15s-6.71875-15-15-15zm0 0"/></svg>