<svg xmlns="http://www.w3.org/2000/svg" xmlns:xlink="http://www.w3.org/1999/xlink" width="24" height="24" preserveAspectRatio="xMidYMid meet" viewBox="0 0 24 24" style="-ms-transform: rotate(360deg); -webkit-transform: rotate(360deg); transform: rotate(360deg);"><path d="M14.839 14.92a3 3 0 1 1-.8 1.599l-4.873-2.443a3 3 0 1 1 0-4.151l4.873-2.443a3 3 0 1 1 .8 1.599l-4.877 2.438a3.022 3.022 0 0 1 0 .962l4.877 2.438zM17 8a1 1 0 1 0 0-2a1 1 0 0 0 0 2zm0 10a1 1 0 1 0 0-2a1 1 0 0 0 0 2zM7 13a1 1 0 1 0 0-2a1 1 0 0 0 0 2z" fill="#626262" fill-rule="evenodd"/><rect x="0" y="0" width="24" height="24" fill="rgba(0, 0, 0, 0)" /></svg>