<?xml version="1.0" encoding="utf-8"?>
<!-- Generator: Adobe Illustrator 25.2.1, SVG Export Plug-In . SVG Version: 6.00 Build 0)  -->
<svg version="1.1" id="Layer_1" xmlns="http://www.w3.org/2000/svg" xmlns:xlink="http://www.w3.org/1999/xlink" x="0px" y="0px"
	 viewBox="0 0 24 24.2" style="enable-background:new 0 0 24 24.2;" xml:space="preserve">
<path d="M20.3,19.2l3.6,3.2l-1.3,1.5L19,20.8C18,21.5,16.8,22,15.5,22c-3,0-5.5-2.5-5.5-5.5s2.5-5.5,5.5-5.5s5.5,2.5,5.5,5.5
	C21,17.5,20.7,18.4,20.3,19.2z M22.6,16.4c0-1.4-0.4-2.7-1.1-3.8c0-0.2,0-0.4,0-0.6c0-1.1-0.2-2.1-0.5-3h-2.7c0.1,0.3,0.1,0.7,0.1,1
	c-0.5-0.2-1-0.4-1.6-0.5c0-0.2-0.1-0.4-0.1-0.5h-4v1c-0.5,0.2-1,0.5-1.5,0.9V9h-4c-0.2,1-0.3,2-0.3,3c0,1.1,0.1,2.1,0.3,3h1.3
	c-0.1,0.5-0.1,1-0.1,1.5c0,0,0,0,0,0H7.6c0.5,1.6,1.1,2.9,2,3.8c0.9,1.5,2.4,2.5,4.1,3c-0.5,0.1-1.1,0.1-1.6,0.1
	C5.7,23.5,0.5,18.3,0.5,12S5.7,0.5,12,0.5S23.5,5.7,23.5,12C23.5,13.6,23.2,15,22.6,16.4z M16.3,3.5C17,4.6,17.6,5.9,18,7.5h2.4
	C19.4,5.8,18,4.4,16.3,3.5z M13.1,2.6c-0.1,0-0.2,0-0.3,0v4.9h3.7C15.7,5,14.5,3.2,13.1,2.6z M5.7,9H3c-0.3,1-0.5,2-0.5,3
	s0.2,2.1,0.5,3h2.7c-0.2-1-0.2-2-0.2-3C5.5,10.9,5.5,9.9,5.7,9z M7.7,20.5C7,19.4,6.4,18.1,6,16.5H3.7C4.6,18.2,6,19.6,7.7,20.5z
	 M7.7,3.5C6,4.4,4.6,5.8,3.7,7.5H6C6.4,5.9,7,4.6,7.7,3.5z M10.9,2.6C9.5,3.2,8.3,5,7.6,7.5h3.7V2.5C11.1,2.5,11,2.5,10.9,2.6z
	 M15.5,20c1.9,0,3.5-1.6,3.5-3.5S17.4,13,15.5,13S12,14.6,12,16.5S13.6,20,15.5,20z"/>
<text transform="matrix(1 0 0 1 0 39)" style="font-family:'Arial-BoldMT'; font-size:5px;">Created by Eynav Raphael</text>
<text transform="matrix(1 0 0 1 0 44)" style="font-family:'Arial-BoldMT'; font-size:5px;">from the Noun Project</text>
</svg>
